<svg data-v-423bf9ae="" xmlns="http://www.w3.org/2000/svg" viewBox="0 0 453 274" class="iconLeft"><!----><!----><!----><g data-v-423bf9ae="" id="11783ecf-d0e5-46bf-9845-e80ade89b8b4" fill="black" transform="matrix(4.285714285714286,0,0,4.285714285714286,242.1225988822324,94.77047709056309)"><path d="M10.00 6.31L10.00 6.31L10.00 6.31Q10.89 6.71 10.89 7.28L10.89 7.28L10.89 7.28Q10.89 7.52 10.67 8.04L10.67 8.04L10.67 8.04Q10.44 8.57 10.29 8.96L10.29 8.96L8.75 12.71L8.75 12.71Q8.54 13.33 8.05 13.58L8.05 13.58L8.05 13.58Q7.84 13.68 7.52 13.68L7.52 13.68L7.52 13.68Q7.20 13.68 6.90 13.43L6.90 13.43L6.90 13.43Q6.59 13.19 6.50 12.94L6.50 12.94L6.38 12.70L6.38 12.70Q6.27 12.42 5.56 10.51L5.56 10.51L5.56 10.51Q5.42 10.85 5.15 11.61L5.15 11.61L5.15 11.61Q4.87 12.38 4.79 12.57L4.79 12.57L4.79 12.57Q4.72 12.75 4.70 12.82L4.70 12.82L4.70 12.82Q4.68 12.88 4.58 13.05L4.58 13.05L4.58 13.05Q4.48 13.22 4.35 13.34L4.35 13.34L4.35 13.34Q4.02 13.68 3.58 13.68L3.58 13.68L3.58 13.68Q3.15 13.68 2.86 13.43L2.86 13.43L2.86 13.43Q2.56 13.19 2.46 12.94L2.46 12.94L0.35 7.78L0.35 7.78Q0.21 7.36 0.21 7.24L0.21 7.24L0.21 7.24Q0.21 6.68 1.01 6.36L1.01 6.36L1.01 6.36Q1.46 6.17 1.74 6.17L1.74 6.17L1.74 6.17Q2.02 6.17 2.19 6.29L2.19 6.29L2.19 6.29Q2.37 6.41 2.44 6.53L2.44 6.53L2.44 6.53Q2.51 6.65 2.55 6.78L2.55 6.78L2.55 6.78Q2.79 7.34 3.54 9.41L3.54 9.41L4.37 7.14L4.37 7.14Q4.45 6.86 4.68 6.65L4.68 6.65L4.68 6.65Q5.08 6.24 5.50 6.24L5.50 6.24L5.50 6.24Q5.92 6.24 6.22 6.47L6.22 6.47L6.22 6.47Q6.52 6.69 6.64 6.92L6.64 6.92L6.75 7.15L6.75 7.15Q7.45 9.11 7.57 9.39L7.57 9.39L8.43 7.07L8.43 7.07Q8.76 6.17 9.44 6.17L9.44 6.17L9.44 6.17Q9.70 6.17 10.00 6.31ZM16.06 13.13L16.06 12.71L16.06 12.71Q15.53 13.41 14.36 13.41L14.36 13.41L14.36 13.41Q13.20 13.41 12.19 12.34L12.19 12.34L12.19 12.34Q11.17 11.27 11.17 9.84L11.17 9.84L11.17 9.84Q11.17 8.41 12.19 7.34L12.19 7.34L12.19 7.34Q13.22 6.26 14.43 6.26L14.43 6.26L14.43 6.26Q14.91 6.26 15.30 6.43L15.30 6.43L15.30 6.43Q15.69 6.61 15.84 6.76L15.84 6.76L15.84 6.76Q15.99 6.90 16.07 7.03L16.07 7.03L16.07 7.03Q16.11 6.64 16.36 6.43L16.36 6.43L16.36 6.43Q16.60 6.23 17.15 6.23L17.15 6.23L17.15 6.23Q17.70 6.23 17.95 6.31L17.95 6.31L17.95 6.31Q18.20 6.40 18.30 6.60L18.30 6.60L18.30 6.60Q18.41 6.80 18.43 6.96L18.43 6.96L18.43 6.96Q18.45 7.11 18.45 7.43L18.45 7.43L18.45 13.23L18.45 13.23Q18.45 14.84 17.33 15.83L17.33 15.83L17.33 15.83Q16.21 16.81 14.81 16.81L14.81 16.81L14.81 16.81Q13.75 16.81 12.78 16.30L12.78 16.30L12.78 16.30Q11.82 15.78 11.82 15.36L11.82 15.36L11.82 15.36Q11.82 14.81 12.24 14.39L12.24 14.39L12.24 14.39Q12.50 14.10 12.65 13.99L12.65 13.99L12.65 13.99Q12.80 13.87 12.99 13.87L12.99 13.87L12.99 13.87Q13.19 13.87 13.40 14.04L13.40 14.04L13.40 14.04Q14.07 14.56 14.85 14.56L14.85 14.56L14.85 14.56Q15.39 14.56 15.72 14.14L15.72 14.14L15.72 14.14Q16.06 13.72 16.06 13.13L16.06 13.13ZM13.57 9.85L13.57 9.85L13.57 9.85Q13.57 10.30 13.92 10.67L13.92 10.67L13.92 10.67Q14.28 11.03 14.79 11.03L14.79 11.03L14.79 11.03Q15.30 11.03 15.64 10.66L15.64 10.66L15.64 10.66Q15.97 10.29 15.97 9.85L15.97 9.85L15.97 9.85Q15.97 9.41 15.65 9.02L15.65 9.02L15.65 9.02Q15.33 8.64 14.78 8.64L14.78 8.64L14.78 8.64Q14.24 8.64 13.90 9.02L13.90 9.02L13.90 9.02Q13.57 9.39 13.57 9.85ZM21.98 7.24L21.98 7.24L21.98 7.24Q22.64 6.24 23.56 6.24L23.56 6.24L23.56 6.24Q24.99 6.24 25.69 7.46L25.69 7.46L25.69 7.46Q25.84 7.25 26.06 7.02L26.06 7.02L26.06 7.02Q26.28 6.79 26.75 6.52L26.75 6.52L26.75 6.52Q27.23 6.24 27.73 6.24L27.73 6.24L27.73 6.24Q28.85 6.24 29.61 7.11L29.61 7.11L29.61 7.11Q30.37 7.97 30.37 9.95L30.37 9.95L30.37 12.40L30.37 12.40Q30.37 12.73 30.34 12.89L30.34 12.89L30.34 12.89Q30.32 13.05 30.21 13.26L30.21 13.26L30.21 13.26Q30.03 13.64 29.13 13.64L29.13 13.64L29.13 13.64Q28.25 13.64 28.06 13.24L28.06 13.24L28.06 13.24Q27.96 13.03 27.94 12.87L27.94 12.87L27.94 12.87Q27.92 12.71 27.92 12.39L27.92 12.39L27.92 9.94L27.92 9.94Q27.92 8.72 27.05 8.72L27.05 8.72L27.05 8.72Q26.56 8.72 26.38 9.04L26.38 9.04L26.38 9.04Q26.21 9.37 26.21 9.95L26.21 9.95L26.21 12.40L26.21 12.40Q26.21 12.74 26.19 12.89L26.19 12.89L26.19 12.89Q26.17 13.05 26.05 13.26L26.05 13.26L26.05 13.26Q25.86 13.64 24.96 13.64L24.96 13.64L24.96 13.64Q24.08 13.64 23.88 13.24L23.88 13.24L23.88 13.24Q23.79 13.03 23.77 12.87L23.77 12.87L23.77 12.87Q23.74 12.71 23.74 12.39L23.74 12.39L23.74 9.94L23.74 9.94Q23.74 8.72 22.88 8.72L22.88 8.72L22.88 8.72Q22.04 8.72 22.04 9.94L22.04 9.94L22.04 12.42L22.04 12.42Q22.04 12.74 22.02 12.90L22.02 12.90L22.02 12.90Q21.99 13.06 21.88 13.27L21.88 13.27L21.88 13.27Q21.67 13.64 20.79 13.64L20.79 13.64L20.79 13.64Q19.91 13.64 19.71 13.26L19.71 13.26L19.71 13.26Q19.61 13.05 19.59 12.89L19.59 12.89L19.59 12.89Q19.57 12.74 19.57 12.40L19.57 12.40L19.57 7.48L19.57 7.48Q19.57 7.15 19.59 6.99L19.59 6.99L19.59 6.99Q19.61 6.83 19.73 6.64L19.73 6.64L19.73 6.64Q19.94 6.26 20.72 6.26L20.72 6.26L20.72 6.26Q21.50 6.26 21.74 6.51L21.74 6.51L21.74 6.51Q21.98 6.76 21.98 7.24ZM31.49 12.40L31.49 7.49L31.49 7.49Q31.49 7.17 31.51 7.01L31.51 7.01L31.51 7.01Q31.53 6.85 31.63 6.64L31.63 6.64L31.63 6.64Q31.82 6.27 32.72 6.27L32.72 6.27L32.72 6.27Q33.39 6.27 33.67 6.51L33.67 6.51L33.67 6.51Q33.91 6.71 33.92 7.11L33.92 7.11L33.92 7.11Q33.94 7.25 33.94 7.52L33.94 7.52L33.94 12.42L33.94 12.42Q33.94 12.74 33.91 12.90L33.91 12.90L33.91 12.90Q33.89 13.06 33.78 13.27L33.78 13.27L33.78 13.27Q33.60 13.64 32.70 13.64L32.70 13.64L32.70 13.64Q31.82 13.64 31.63 13.26L31.63 13.26L31.63 13.26Q31.53 13.05 31.51 12.89L31.51 12.89L31.51 12.89Q31.49 12.74 31.49 12.40L31.49 12.40ZM33.79 4.89L33.79 4.89L33.79 4.89Q33.68 5.10 33.42 5.18L33.42 5.18L33.42 5.18Q33.15 5.26 32.71 5.26L32.71 5.26L32.71 5.26Q32.27 5.26 32.00 5.18L32.00 5.18L32.00 5.18Q31.74 5.10 31.63 4.89L31.63 4.89L31.63 4.89Q31.53 4.68 31.51 4.52L31.51 4.52L31.51 4.52Q31.49 4.35 31.49 4.03L31.49 4.03L31.49 4.03Q31.49 3.71 31.51 3.55L31.51 3.55L31.51 3.55Q31.53 3.39 31.63 3.19L31.63 3.19L31.63 3.19Q31.82 2.81 32.72 2.81L32.72 2.81L32.72 2.81Q33.60 2.81 33.78 3.19L33.78 3.19L33.78 3.19Q33.89 3.40 33.91 3.56L33.91 3.56L33.91 3.56Q33.94 3.72 33.94 4.05L33.94 4.05L33.94 4.05Q33.94 4.37 33.91 4.53L33.91 4.53L33.91 4.53Q33.89 4.69 33.79 4.89ZM37.23 11.33L37.23 11.33L37.23 11.33Q37.46 11.56 37.46 12.31L37.46 12.31L37.46 12.36L37.46 12.36Q37.46 12.70 37.44 12.86L37.44 12.86L37.44 12.86Q37.42 13.02 37.30 13.24L37.30 13.24L37.30 13.24Q37.09 13.65 36.24 13.65L36.24 13.65L36.24 13.65Q35.39 13.65 35.12 13.38L35.12 13.38L35.12 13.38Q34.85 13.12 34.85 12.38L34.85 12.38L34.85 12.32L34.85 12.32Q34.85 12.00 34.87 11.83L34.87 11.83L34.87 11.83Q34.89 11.66 35 11.45L35 11.45L35 11.45Q35.21 11.03 36.06 11.03L36.06 11.03L36.06 11.03Q36.90 11.03 37.23 11.33ZM38.37 12.40L38.37 7.49L38.37 7.49Q38.37 7.17 38.40 7.01L38.40 7.01L38.40 7.01Q38.42 6.85 38.51 6.64L38.51 6.64L38.51 6.64Q38.71 6.27 39.61 6.27L39.61 6.27L39.61 6.27Q40.28 6.27 40.56 6.51L40.56 6.51L40.56 6.51Q40.80 6.71 40.81 7.11L40.81 7.11L40.81 7.11Q40.82 7.25 40.82 7.52L40.82 7.52L40.82 12.42L40.82 12.42Q40.82 12.74 40.80 12.90L40.80 12.90L40.80 12.90Q40.78 13.06 40.67 13.27L40.67 13.27L40.67 13.27Q40.49 13.64 39.59 13.64L39.59 13.64L39.59 13.64Q38.71 13.64 38.51 13.26L38.51 13.26L38.51 13.26Q38.42 13.05 38.40 12.89L38.40 12.89L38.40 12.89Q38.37 12.74 38.37 12.40L38.37 12.40ZM40.68 4.89L40.68 4.89L40.68 4.89Q40.57 5.10 40.31 5.18L40.31 5.18L40.31 5.18Q40.04 5.26 39.60 5.26L39.60 5.26L39.60 5.26Q39.16 5.26 38.89 5.18L38.89 5.18L38.89 5.18Q38.63 5.10 38.52 4.89L38.52 4.89L38.52 4.89Q38.42 4.68 38.40 4.52L38.40 4.52L38.40 4.52Q38.37 4.35 38.37 4.03L38.37 4.03L38.37 4.03Q38.37 3.71 38.40 3.55L38.40 3.55L38.40 3.55Q38.42 3.39 38.51 3.19L38.51 3.19L38.51 3.19Q38.71 2.81 39.61 2.81L39.61 2.81L39.61 2.81Q40.49 2.81 40.67 3.19L40.67 3.19L40.67 3.19Q40.78 3.40 40.80 3.56L40.80 3.56L40.80 3.56Q40.82 3.72 40.82 4.05L40.82 4.05L40.82 4.05Q40.82 4.37 40.80 4.53L40.80 4.53L40.80 4.53Q40.78 4.69 40.68 4.89ZM46.89 3.19L46.89 3.19L46.89 3.19Q47.00 2.98 47.26 2.90L47.26 2.90L47.26 2.90Q47.53 2.81 47.97 2.81L47.97 2.81L47.97 2.81Q48.41 2.81 48.68 2.90L48.68 2.90L48.68 2.90Q48.94 2.98 49.05 3.19L49.05 3.19L49.05 3.19Q49.15 3.40 49.17 3.56L49.17 3.56L49.17 3.56Q49.20 3.72 49.20 4.05L49.20 4.05L49.20 12.40L49.20 12.40Q49.20 12.73 49.17 12.89L49.17 12.89L49.17 12.89Q49.15 13.05 49.04 13.24L49.04 13.24L49.04 13.24Q48.83 13.62 47.86 13.62L47.86 13.62L47.86 13.62Q46.89 13.62 46.77 12.94L46.77 12.94L46.77 12.94Q46.19 13.61 45.14 13.61L45.14 13.61L45.14 13.61Q43.88 13.61 42.84 12.51L42.84 12.51L42.84 12.51Q41.80 11.41 41.80 9.95L41.80 9.95L41.80 9.95Q41.80 8.48 42.85 7.38L42.85 7.38L42.85 7.38Q43.89 6.27 45.14 6.27L45.14 6.27L45.14 6.27Q46.17 6.27 46.75 6.97L46.75 6.97L46.75 4.03L46.75 4.03Q46.75 3.71 46.77 3.55L46.77 3.55L46.77 3.55Q46.79 3.39 46.89 3.19ZM44.62 10.79L44.62 10.79L44.62 10.79Q44.98 11.17 45.50 11.17L45.50 11.17L45.50 11.17Q46.02 11.17 46.36 10.79L46.36 10.79L46.36 10.79Q46.70 10.42 46.70 9.96L46.70 9.96L46.70 9.96Q46.70 9.51 46.38 9.11L46.38 9.11L46.38 9.11Q46.05 8.72 45.49 8.72L45.49 8.72L45.49 8.72Q44.93 8.72 44.59 9.11L44.59 9.11L44.59 9.11Q44.25 9.49 44.25 9.95L44.25 9.95L44.25 9.95Q44.25 10.42 44.62 10.79Z"></path></g><!----><g data-v-423bf9ae="" id="98e60308-a3a7-457b-b080-45ab298a70f8" transform="matrix(1.743644544813368,0,0,1.743644544813368,-24.30158054675556,0.18666656041622787)" stroke="none" fill="black"><path d="M119.625 0h-.466c-12.567 0-22.792 10.225-22.792 22.792v30.707H60.561v-4.847c0-12.61-10.259-22.87-22.87-22.87h-.311c-12.61 0-22.87 10.259-22.87 22.87v43.615c0 35.394 28.472 64.4 63.469 64.66l.483.001c35.264 0 63.954-28.689 63.954-63.953V22.792C142.417 10.225 132.193 0 119.625 0zm7.792 92.975c0 26.993-21.96 48.953-48.954 48.953l-.372-.001c-26.788-.199-48.581-22.476-48.581-49.66V48.652c0-4.339 3.53-7.87 7.87-7.87h.311c4.339 0 7.87 3.53 7.87 7.87v37.713a7.5 7.5 0 0 0 15 0V68.499h9.168v17.866a7.5 7.5 0 0 0 15 0V68.499h11.638v17.866a7.5 7.5 0 0 0 15 0V22.792c0-4.296 3.496-7.792 7.792-7.792h.466c4.296 0 7.792 3.496 7.792 7.792v70.183z"></path></g><!----></svg>